<svg version="1.1" xmlns="http://www.w3.org/2000/svg" viewBox="0 0 5050 1700.494905385735" width="10100" height="3400.98981077147">
  <!-- svg-source:excalidraw -->
  
  <defs>
    <style class="style-fonts">
      @font-face {
        font-family: "Virgil";
        src: url("https://excalidraw.com/Virgil.woff2");
      }
      @font-face {
        font-family: "Cascadia";
        src: url("https://excalidraw.com/Cascadia.woff2");
      }
    </style>
  </defs>
  <g stroke-linecap="round" transform="translate(1305.1666666666615 699.505094614265) rotate(0 283.33333333333394 113.82823871906862)"><path d="M32 0 L534.67 0 L542.17 0.5 L548.67 2 L554.17 4.5 L558.67 8 L562.17 12.5 L564.67 18 L566.17 24.5 L566.67 195.66 L566.17 203.16 L564.67 209.66 L562.17 215.16 L558.67 219.66 L554.17 223.16 L548.67 225.66 L542.17 227.16 L534.67 227.66 L32 227.66 L24.5 227.16 L18 225.66 L12.5 223.16 L8 219.66 L4.5 215.16 L2 209.66 L0.5 203.16 L0 32 L0.5 24.5 L2 18 L4.5 12.5 L8 8 L12.5 4.5 L18 2 L24.5 0.5 L32 0" stroke="none" stroke-width="0" fill="#ced4da"></path><path d="M32 0 M32 0 C225.3 0, 418.6 0, 534.67 0 M32 0 C232.23 0, 432.46 0, 534.67 0 M534.67 0 C556 0, 566.67 10.67, 566.67 32 M534.67 0 C556 0, 566.67 10.67, 566.67 32 M566.67 32 C566.67 90.2, 566.67 148.4, 566.67 195.66 M566.67 32 C566.67 69.11, 566.67 106.22, 566.67 195.66 M566.67 195.66 C566.67 216.99, 556 227.66, 534.67 227.66 M566.67 195.66 C566.67 216.99, 556 227.66, 534.67 227.66 M534.67 227.66 C351.22 227.66, 167.78 227.66, 32 227.66 M534.67 227.66 C350.27 227.66, 165.87 227.66, 32 227.66 M32 227.66 C10.67 227.66, 0 216.99, 0 195.66 M32 227.66 C10.67 227.66, 0 216.99, 0 195.66 M0 195.66 C0 139.82, 0 83.98, 0 32 M0 195.66 C0 153.27, 0 110.88, 0 32 M0 32 C0 10.67, 10.67 0, 32 0 M0 32 C0 10.67, 10.67 0, 32 0" stroke="#000000" stroke-width="4" fill="none"></path></g><g transform="translate(1372.4523150116838 722.1333333333336) rotate(0 212.74606323242188 91.19999999999999)"><text x="212.74606323242188" y="0" font-family="Helvetica, Segoe UI Emoji" font-size="76.5425022912286px" fill="#000000" text-anchor="middle" style="white-space: pre;" direction="ltr" dominant-baseline="text-before-edge">Subdomains</text><text x="212.74606323242188" y="91.2" font-family="Helvetica, Segoe UI Emoji" font-size="76.5425022912286px" fill="#000000" text-anchor="middle" style="white-space: pre;" direction="ltr" dominant-baseline="text-before-edge">split worker</text></g><g transform="translate(1946.6549479166652 10) rotate(0 376.15917968750045 108)"><text x="376.1591796875" y="0" font-family="Helvetica, Segoe UI Emoji" font-size="180.50562324273642px" fill="#000000" text-anchor="middle" style="white-space: pre;" direction="ltr" dominant-baseline="text-before-edge">Main Call</text></g><g stroke-linecap="round" transform="translate(2711.6666666666624 693.3333333333336) rotate(0 298.695652173913 120)"><path d="M32 0 L565.39 0 L572.89 0.5 L579.39 2 L584.89 4.5 L589.39 8 L592.89 12.5 L595.39 18 L596.89 24.5 L597.39 208 L596.89 215.5 L595.39 222 L592.89 227.5 L589.39 232 L584.89 235.5 L579.39 238 L572.89 239.5 L565.39 240 L32 240 L24.5 239.5 L18 238 L12.5 235.5 L8 232 L4.5 227.5 L2 222 L0.5 215.5 L0 32 L0.5 24.5 L2 18 L4.5 12.5 L8 8 L12.5 4.5 L18 2 L24.5 0.5 L32 0" stroke="none" stroke-width="0" fill="#ced4da"></path><path d="M32 0 M32 0 C232.04 0, 432.07 0, 565.39 0 M32 0 C178.61 0, 325.22 0, 565.39 0 M565.39 0 C586.72 0, 597.39 10.67, 597.39 32 M565.39 0 C586.72 0, 597.39 10.67, 597.39 32 M597.39 32 C597.39 89.54, 597.39 147.08, 597.39 208 M597.39 32 C597.39 82.76, 597.39 133.52, 597.39 208 M597.39 208 C597.39 229.33, 586.72 240, 565.39 240 M597.39 208 C597.39 229.33, 586.72 240, 565.39 240 M565.39 240 C356.61 240, 147.84 240, 32 240 M565.39 240 C386.35 240, 207.31 240, 32 240 M32 240 C10.67 240, 0 229.33, 0 208 M32 240 C10.67 240, 0 229.33, 0 208 M0 208 C0 148.06, 0 88.12, 0 32 M0 208 C0 155.27, 0 102.55, 0 32 M0 32 C0 10.67, 10.67 0, 32 0 M0 32 C0 10.67, 10.67 0, 32 0" stroke="#000000" stroke-width="4" fill="none"></path></g><g transform="translate(2816.204884819361 717.3333333333336) rotate(0 204.0101318359375 96)"><text x="204.0101318359375" y="0" font-family="Helvetica, Segoe UI Emoji" font-size="80.69263285024138px" fill="#000000" text-anchor="middle" style="white-space: pre;" direction="ltr" dominant-baseline="text-before-edge">Directories</text><text x="204.0101318359375" y="96" font-family="Helvetica, Segoe UI Emoji" font-size="80.69263285024138px" fill="#000000" text-anchor="middle" style="white-space: pre;" direction="ltr" dominant-baseline="text-before-edge">split worker</text></g><g mask="url(#mask-PnRCjmu8o98k61h4uYPTB)" stroke-linecap="round"><g transform="translate(2080.785767502006 253.3333333333335) rotate(0 -164.68828973989457 214.16666666666669)"><path d="M0 0 C-54.9 71.39, -274.48 356.94, -329.38 428.33 M0 0 C-54.9 71.39, -274.48 356.94, -329.38 428.33" stroke="#000000" stroke-width="4" fill="none"></path></g><g transform="translate(2080.785767502006 253.3333333333335) rotate(0 -164.68828973989457 214.16666666666669)"><path d="M-329.38 428.33 L-326.11 413.69 L-316.06 421.42 L-329.38 428.33" stroke="none" stroke-width="0" fill="#000000" fill-rule="evenodd"></path><path d="M-329.38 428.33 C-328.09 422.55, -326.8 416.77, -326.11 413.69 M-329.38 428.33 C-328.39 423.89, -327.4 419.44, -326.11 413.69 M-326.11 413.69 C-322.49 416.48, -318.86 419.27, -316.06 421.42 M-326.11 413.69 C-322.81 416.24, -319.5 418.78, -316.06 421.42 M-316.06 421.42 C-319.17 423.03, -322.28 424.65, -329.38 428.33 M-316.06 421.42 C-321.32 424.15, -326.57 426.88, -329.38 428.33 M-329.38 428.33 C-329.38 428.33, -329.38 428.33, -329.38 428.33 M-329.38 428.33 C-329.38 428.33, -329.38 428.33, -329.38 428.33" stroke="#000000" stroke-width="4" fill="none"></path></g></g><mask id="mask-PnRCjmu8o98k61h4uYPTB"><rect x="0" y="0" fill="#fff" width="2510.162346981795" height="781.6666666666669"></rect><rect x="1816.0340011996104" y="445.9000000000002" fill="#000" width="200.126953125" height="43.199999999999996" opacity="1"></rect></mask><g transform="translate(1816.0340011996122 445.90000000000015) rotate(0 100.0634765625 21.60000000000005)"><text x="100.0634765625" y="0" font-family="Helvetica, Segoe UI Emoji" font-size="36px" fill="#000000" text-anchor="middle" style="white-space: pre;" direction="ltr" dominant-baseline="text-before-edge">Subdomains</text></g><g mask="url(#mask-q0HKXyvjdhdWImKxr8Y6Y)" stroke-linecap="round"><g transform="translate(2466.882380293968 241.00146693288775) rotate(0 168.6494566754127 225.51375928717943)"><path d="M0 0 C56.22 75.17, 281.08 375.86, 337.3 451.03 M0 0 C56.22 75.17, 281.08 375.86, 337.3 451.03" stroke="#000000" stroke-width="4" fill="none"></path></g><g transform="translate(2466.882380293968 241.00146693288775) rotate(0 168.6494566754127 225.51375928717943)"><path d="M337.3 451.03 L324.08 443.94 L334.23 436.34 L337.3 451.03" stroke="none" stroke-width="0" fill="#000000" fill-rule="evenodd"></path><path d="M337.3 451.03 C333.13 448.79, 328.97 446.56, 324.08 443.94 M337.3 451.03 C334.59 449.58, 331.89 448.13, 324.08 443.94 M324.08 443.94 C326.58 442.06, 329.09 440.19, 334.23 436.34 M324.08 443.94 C327.53 441.36, 330.98 438.78, 334.23 436.34 M334.23 436.34 C334.94 439.75, 335.65 443.15, 337.3 451.03 M334.23 436.34 C334.98 439.94, 335.73 443.53, 337.3 451.03 M337.3 451.03 C337.3 451.03, 337.3 451.03, 337.3 451.03 M337.3 451.03 C337.3 451.03, 337.3 451.03, 337.3 451.03" stroke="#000000" stroke-width="4" fill="none"></path></g></g><mask id="mask-q0HKXyvjdhdWImKxr8Y6Y"><rect x="0" y="0" fill="#fff" width="2904.181293644793" height="792.0289855072466"></rect><rect x="2549.5132822818796" y="444.9152262200672" fill="#000" width="172.037109375" height="43.199999999999996" opacity="1"></rect></mask><g transform="translate(2549.5132822818796 444.91522622006715) rotate(0 86.01855468750091 21.600000000000023)"><text x="86.0185546875" y="0" font-family="Helvetica, Segoe UI Emoji" font-size="36px" fill="#000000" text-anchor="middle" style="white-space: pre;" direction="ltr" dominant-baseline="text-before-edge">Directories</text></g><g stroke-linecap="round" transform="translate(10 1447.8384279475977) rotate(0 283.33333333333394 113.82823871906862)"><path d="M32 0 L534.67 0 L542.17 0.5 L548.67 2 L554.17 4.5 L558.67 8 L562.17 12.5 L564.67 18 L566.17 24.5 L566.67 195.66 L566.17 203.16 L564.67 209.66 L562.17 215.16 L558.67 219.66 L554.17 223.16 L548.67 225.66 L542.17 227.16 L534.67 227.66 L32 227.66 L24.5 227.16 L18 225.66 L12.5 223.16 L8 219.66 L4.5 215.16 L2 209.66 L0.5 203.16 L0 32 L0.5 24.5 L2 18 L4.5 12.5 L8 8 L12.5 4.5 L18 2 L24.5 0.5 L32 0" stroke="none" stroke-width="0" fill="#868e96"></path><path d="M32 0 M32 0 C167.6 0, 303.2 0, 534.67 0 M32 0 C144.46 0, 256.92 0, 534.67 0 M534.67 0 C556 0, 566.67 10.67, 566.67 32 M534.67 0 C556 0, 566.67 10.67, 566.67 32 M566.67 32 C566.67 77.65, 566.67 123.3, 566.67 195.66 M566.67 32 C566.67 71.34, 566.67 110.69, 566.67 195.66 M566.67 195.66 C566.67 216.99, 556 227.66, 534.67 227.66 M566.67 195.66 C566.67 216.99, 556 227.66, 534.67 227.66 M534.67 227.66 C391.47 227.66, 248.27 227.66, 32 227.66 M534.67 227.66 C388.71 227.66, 242.75 227.66, 32 227.66 M32 227.66 C10.67 227.66, 0 216.99, 0 195.66 M32 227.66 C10.67 227.66, 0 216.99, 0 195.66 M0 195.66 C0 138.83, 0 82, 0 32 M0 195.66 C0 155.99, 0 116.31, 0 32 M0 32 C0 10.67, 10.67 0, 32 0 M0 32 C0 10.67, 10.67 0, 32 0" stroke="#000000" stroke-width="4" fill="none"></path></g><g transform="translate(58.9352099091484 1501.022820042404) rotate(0 222.76316833496094 68.39999999999998)"><text x="222.76316833496094" y="0" font-family="Helvetica, Segoe UI Emoji" font-size="57.2635534702539px" fill="#ffffff" text-anchor="middle" style="white-space: pre;" direction="ltr" dominant-baseline="text-before-edge">Subdomains</text><text x="222.76316833496094" y="68.39999999999999" font-family="Helvetica, Segoe UI Emoji" font-size="57.2635534702539px" fill="#ffffff" text-anchor="middle" style="white-space: pre;" direction="ltr" dominant-baseline="text-before-edge">bruteforce worker</text></g><g stroke-linecap="round" transform="translate(686.666666666667 1447.8384279475977) rotate(0 283.33333333333394 113.82823871906862)"><path d="M32 0 L534.67 0 L542.17 0.5 L548.67 2 L554.17 4.5 L558.67 8 L562.17 12.5 L564.67 18 L566.17 24.5 L566.67 195.66 L566.17 203.16 L564.67 209.66 L562.17 215.16 L558.67 219.66 L554.17 223.16 L548.67 225.66 L542.17 227.16 L534.67 227.66 L32 227.66 L24.5 227.16 L18 225.66 L12.5 223.16 L8 219.66 L4.5 215.16 L2 209.66 L0.5 203.16 L0 32 L0.5 24.5 L2 18 L4.5 12.5 L8 8 L12.5 4.5 L18 2 L24.5 0.5 L32 0" stroke="none" stroke-width="0" fill="#868e96"></path><path d="M32 0 M32 0 C221.03 0, 410.06 0, 534.67 0 M32 0 C208.99 0, 385.98 0, 534.67 0 M534.67 0 C556 0, 566.67 10.67, 566.67 32 M534.67 0 C556 0, 566.67 10.67, 566.67 32 M566.67 32 C566.67 93.74, 566.67 155.47, 566.67 195.66 M566.67 32 C566.67 70.85, 566.67 109.7, 566.67 195.66 M566.67 195.66 C566.67 216.99, 556 227.66, 534.67 227.66 M566.67 195.66 C566.67 216.99, 556 227.66, 534.67 227.66 M534.67 227.66 C363.71 227.66, 192.75 227.66, 32 227.66 M534.67 227.66 C390.31 227.66, 245.95 227.66, 32 227.66 M32 227.66 C10.67 227.66, 0 216.99, 0 195.66 M32 227.66 C10.67 227.66, 0 216.99, 0 195.66 M0 195.66 C0 140.35, 0 85.05, 0 32 M0 195.66 C0 136.01, 0 76.36, 0 32 M0 32 C0 10.67, 10.67 0, 32 0 M0 32 C0 10.67, 10.67 0, 32 0" stroke="#000000" stroke-width="4" fill="none"></path></g><g transform="translate(735.6018765758154 1501.022820042404) rotate(0 222.76316833496094 68.39999999999998)"><text x="222.76316833496094" y="0" font-family="Helvetica, Segoe UI Emoji" font-size="57.2635534702539px" fill="#ffffff" text-anchor="middle" style="white-space: pre;" direction="ltr" dominant-baseline="text-before-edge">Subdomains</text><text x="222.76316833496094" y="68.39999999999999" font-family="Helvetica, Segoe UI Emoji" font-size="57.2635534702539px" fill="#ffffff" text-anchor="middle" style="white-space: pre;" direction="ltr" dominant-baseline="text-before-edge">bruteforce worker</text></g><g stroke-linecap="round" transform="translate(1736.6666666666652 1447.8384279475977) rotate(0 283.3333333333344 113.82823871906862)"><path d="M32 0 L534.67 0 L542.17 0.5 L548.67 2 L554.17 4.5 L558.67 8 L562.17 12.5 L564.67 18 L566.17 24.5 L566.67 195.66 L566.17 203.16 L564.67 209.66 L562.17 215.16 L558.67 219.66 L554.17 223.16 L548.67 225.66 L542.17 227.16 L534.67 227.66 L32 227.66 L24.5 227.16 L18 225.66 L12.5 223.16 L8 219.66 L4.5 215.16 L2 209.66 L0.5 203.16 L0 32 L0.5 24.5 L2 18 L4.5 12.5 L8 8 L12.5 4.5 L18 2 L24.5 0.5 L32 0" stroke="none" stroke-width="0" fill="#868e96"></path><path d="M32 0 M32 0 C208.38 0, 384.76 0, 534.67 0 M32 0 C152.15 0, 272.3 0, 534.67 0 M534.67 0 C556 0, 566.67 10.67, 566.67 32 M534.67 0 C556 0, 566.67 10.67, 566.67 32 M566.67 32 C566.67 82.88, 566.67 133.77, 566.67 195.66 M566.67 32 C566.67 96.44, 566.67 160.87, 566.67 195.66 M566.67 195.66 C566.67 216.99, 556 227.66, 534.67 227.66 M566.67 195.66 C566.67 216.99, 556 227.66, 534.67 227.66 M534.67 227.66 C337.93 227.66, 141.19 227.66, 32 227.66 M534.67 227.66 C407.47 227.66, 280.27 227.66, 32 227.66 M32 227.66 C10.67 227.66, 0 216.99, 0 195.66 M32 227.66 C10.67 227.66, 0 216.99, 0 195.66 M0 195.66 C0 151.62, 0 107.59, 0 32 M0 195.66 C0 156.27, 0 116.89, 0 32 M0 32 C0 10.67, 10.67 0, 32 0 M0 32 C0 10.67, 10.67 0, 32 0" stroke="#000000" stroke-width="4" fill="none"></path></g><g transform="translate(1785.6018765758145 1501.022820042404) rotate(0 222.76316833496094 68.39999999999998)"><text x="222.76316833496094" y="0" font-family="Helvetica, Segoe UI Emoji" font-size="57.2635534702539px" fill="#ffffff" text-anchor="middle" style="white-space: pre;" direction="ltr" dominant-baseline="text-before-edge">Subdomains</text><text x="222.76316833496094" y="68.39999999999999" font-family="Helvetica, Segoe UI Emoji" font-size="57.2635534702539px" fill="#ffffff" text-anchor="middle" style="white-space: pre;" direction="ltr" dominant-baseline="text-before-edge">bruteforce worker</text></g><g stroke-linecap="round" transform="translate(2803.333333333332 1462.8384279475977) rotate(0 283.33333333333394 113.82823871906862)"><path d="M32 0 L534.67 0 L542.17 0.5 L548.67 2 L554.17 4.5 L558.67 8 L562.17 12.5 L564.67 18 L566.17 24.5 L566.67 195.66 L566.17 203.16 L564.67 209.66 L562.17 215.16 L558.67 219.66 L554.17 223.16 L548.67 225.66 L542.17 227.16 L534.67 227.66 L32 227.66 L24.5 227.16 L18 225.66 L12.5 223.16 L8 219.66 L4.5 215.16 L2 209.66 L0.5 203.16 L0 32 L0.5 24.5 L2 18 L4.5 12.5 L8 8 L12.5 4.5 L18 2 L24.5 0.5 L32 0" stroke="none" stroke-width="0" fill="#868e96"></path><path d="M32 0 M32 0 C175.73 0, 319.46 0, 534.67 0 M32 0 C159.24 0, 286.48 0, 534.67 0 M534.67 0 C556 0, 566.67 10.67, 566.67 32 M534.67 0 C556 0, 566.67 10.67, 566.67 32 M566.67 32 C566.67 95.92, 566.67 159.84, 566.67 195.66 M566.67 32 C566.67 76.8, 566.67 121.6, 566.67 195.66 M566.67 195.66 C566.67 216.99, 556 227.66, 534.67 227.66 M566.67 195.66 C566.67 216.99, 556 227.66, 534.67 227.66 M534.67 227.66 C346.07 227.66, 157.47 227.66, 32 227.66 M534.67 227.66 C344.57 227.66, 154.47 227.66, 32 227.66 M32 227.66 C10.67 227.66, 0 216.99, 0 195.66 M32 227.66 C10.67 227.66, 0 216.99, 0 195.66 M0 195.66 C0 145.85, 0 96.04, 0 32 M0 195.66 C0 159.23, 0 122.8, 0 32 M0 32 C0 10.67, 10.67 0, 32 0 M0 32 C0 10.67, 10.67 0, 32 0" stroke="#000000" stroke-width="4" fill="none"></path></g><g transform="translate(2852.2685432424805 1500.8520511252455) rotate(0 222.76316833496094 68.39999999999998)"><text x="222.76316833496094" y="0" font-family="Helvetica, Segoe UI Emoji" font-size="57.2635534702539px" fill="#ffffff" text-anchor="middle" style="white-space: pre;" direction="ltr" dominant-baseline="text-before-edge">Directories</text><text x="222.76316833496094" y="68.39999999999999" font-family="Helvetica, Segoe UI Emoji" font-size="57.2635534702539px" fill="#ffffff" text-anchor="middle" style="white-space: pre;" direction="ltr" dominant-baseline="text-before-edge">bruteforce worker</text></g><g stroke-linecap="round" transform="translate(3480 1462.8384279475977) rotate(0 283.33333333333394 113.82823871906862)"><path d="M32 0 L534.67 0 L542.17 0.5 L548.67 2 L554.17 4.5 L558.67 8 L562.17 12.5 L564.67 18 L566.17 24.5 L566.67 195.66 L566.17 203.16 L564.67 209.66 L562.17 215.16 L558.67 219.66 L554.17 223.16 L548.67 225.66 L542.17 227.16 L534.67 227.66 L32 227.66 L24.5 227.16 L18 225.66 L12.5 223.16 L8 219.66 L4.5 215.16 L2 209.66 L0.5 203.16 L0 32 L0.5 24.5 L2 18 L4.5 12.5 L8 8 L12.5 4.5 L18 2 L24.5 0.5 L32 0" stroke="none" stroke-width="0" fill="#868e96"></path><path d="M32 0 M32 0 C156.16 0, 280.33 0, 534.67 0 M32 0 C196.15 0, 360.29 0, 534.67 0 M534.67 0 C556 0, 566.67 10.67, 566.67 32 M534.67 0 C556 0, 566.67 10.67, 566.67 32 M566.67 32 C566.67 84.39, 566.67 136.77, 566.67 195.66 M566.67 32 C566.67 76.68, 566.67 121.35, 566.67 195.66 M566.67 195.66 C566.67 216.99, 556 227.66, 534.67 227.66 M566.67 195.66 C566.67 216.99, 556 227.66, 534.67 227.66 M534.67 227.66 C364.97 227.66, 195.27 227.66, 32 227.66 M534.67 227.66 C348.78 227.66, 162.9 227.66, 32 227.66 M32 227.66 C10.67 227.66, 0 216.99, 0 195.66 M32 227.66 C10.67 227.66, 0 216.99, 0 195.66 M0 195.66 C0 133.63, 0 71.61, 0 32 M0 195.66 C0 147.51, 0 99.37, 0 32 M0 32 C0 10.67, 10.67 0, 32 0 M0 32 C0 10.67, 10.67 0, 32 0" stroke="#000000" stroke-width="4" fill="none"></path></g><g transform="translate(3528.9352099091484 1500.8520511252455) rotate(0 222.76316833496094 68.39999999999998)"><text x="222.76316833496094" y="0" font-family="Helvetica, Segoe UI Emoji" font-size="57.2635534702539px" fill="#ffffff" text-anchor="middle" style="white-space: pre;" direction="ltr" dominant-baseline="text-before-edge">Directories</text><text x="222.76316833496094" y="68.39999999999999" font-family="Helvetica, Segoe UI Emoji" font-size="57.2635534702539px" fill="#ffffff" text-anchor="middle" style="white-space: pre;" direction="ltr" dominant-baseline="text-before-edge">bruteforce worker</text></g><g stroke-linecap="round" transform="translate(4473.333333333332 1462.8384279475977) rotate(0 283.33333333333394 113.82823871906862)"><path d="M32 0 L534.67 0 L542.17 0.5 L548.67 2 L554.17 4.5 L558.67 8 L562.17 12.5 L564.67 18 L566.17 24.5 L566.67 195.66 L566.17 203.16 L564.67 209.66 L562.17 215.16 L558.67 219.66 L554.17 223.16 L548.67 225.66 L542.17 227.16 L534.67 227.66 L32 227.66 L24.5 227.16 L18 225.66 L12.5 223.16 L8 219.66 L4.5 215.16 L2 209.66 L0.5 203.16 L0 32 L0.5 24.5 L2 18 L4.5 12.5 L8 8 L12.5 4.5 L18 2 L24.5 0.5 L32 0" stroke="none" stroke-width="0" fill="#868e96"></path><path d="M32 0 M32 0 C209.8 0, 387.6 0, 534.67 0 M32 0 C168.18 0, 304.36 0, 534.67 0 M534.67 0 C556 0, 566.67 10.67, 566.67 32 M534.67 0 C556 0, 566.67 10.67, 566.67 32 M566.67 32 C566.67 89.38, 566.67 146.77, 566.67 195.66 M566.67 32 C566.67 78.98, 566.67 125.95, 566.67 195.66 M566.67 195.66 C566.67 216.99, 556 227.66, 534.67 227.66 M566.67 195.66 C566.67 216.99, 556 227.66, 534.67 227.66 M534.67 227.66 C364.42 227.66, 194.17 227.66, 32 227.66 M534.67 227.66 C411.19 227.66, 287.71 227.66, 32 227.66 M32 227.66 C10.67 227.66, 0 216.99, 0 195.66 M32 227.66 C10.67 227.66, 0 216.99, 0 195.66 M0 195.66 C0 140.96, 0 86.26, 0 32 M0 195.66 C0 134.61, 0 73.57, 0 32 M0 32 C0 10.67, 10.67 0, 32 0 M0 32 C0 10.67, 10.67 0, 32 0" stroke="#000000" stroke-width="4" fill="none"></path></g><g transform="translate(4522.2685432424805 1500.8520511252455) rotate(0 222.76316833496094 68.39999999999998)"><text x="222.76316833496094" y="0" font-family="Helvetica, Segoe UI Emoji" font-size="57.2635534702539px" fill="#ffffff" text-anchor="middle" style="white-space: pre;" direction="ltr" dominant-baseline="text-before-edge">Directories</text><text x="222.76316833496094" y="68.39999999999999" font-family="Helvetica, Segoe UI Emoji" font-size="57.2635534702539px" fill="#ffffff" text-anchor="middle" style="white-space: pre;" direction="ltr" dominant-baseline="text-before-edge">bruteforce worker</text></g><g mask="url(#mask-nFFz5EBfarrdqlmtl6f6A)" stroke-linecap="round"><g transform="translate(1311.6666666666679 936.6666666666664) rotate(0 -380 247.5)"><path d="M0 0 C-126.67 82.5, -633.33 412.5, -760 495 M0 0 C-126.67 82.5, -633.33 412.5, -760 495" stroke="#000000" stroke-width="4" fill="none"></path></g><g transform="translate(1311.6666666666679 936.6666666666664) rotate(0 -380 247.5)"><path d="M-760 495 L-752.07 482.27 L-745.15 492.89 L-760 495" stroke="none" stroke-width="0" fill="#000000" fill-rule="evenodd"></path><path d="M-760 495 C-757.29 490.65, -754.58 486.3, -752.07 482.27 M-760 495 C-757.06 490.28, -754.12 485.57, -752.07 482.27 M-752.07 482.27 C-750.58 484.56, -749.08 486.85, -745.15 492.89 M-752.07 482.27 C-749.55 486.13, -747.04 489.99, -745.15 492.89 M-745.15 492.89 C-749.53 493.51, -753.91 494.14, -760 495 M-745.15 492.89 C-750.8 493.69, -756.46 494.5, -760 495 M-760 495 C-760 495, -760 495, -760 495 M-760 495 C-760 495, -760 495, -760 495" stroke="#000000" stroke-width="4" fill="none"></path></g></g><mask id="mask-nFFz5EBfarrdqlmtl6f6A"><rect x="0" y="0" fill="#fff" width="2171.666666666668" height="1531.6666666666665"></rect><rect x="835.6022135416679" y="1140.9666666666662" fill="#000" width="192.12890625" height="86.39999999999999" opacity="1"></rect></mask><g transform="translate(835.6022135416679 1140.9666666666665) rotate(0 96.064453125 43.200000000000045)"><text x="96.064453125" y="0" font-family="Helvetica, Segoe UI Emoji" font-size="36px" fill="#000000" text-anchor="middle" style="white-space: pre;" direction="ltr" dominant-baseline="text-before-edge">Subdomain </text><text x="96.064453125" y="43.199999999999996" font-family="Helvetica, Segoe UI Emoji" font-size="36px" fill="#000000" text-anchor="middle" style="white-space: pre;" direction="ltr" dominant-baseline="text-before-edge">Chunk</text></g><g mask="url(#mask-lt-JXwREOQyaWZ1T-nosI)" stroke-linecap="round"><g transform="translate(1493.3333333333348 943.333333333333) rotate(0 -149.16666666666652 251.66666666666669)"><path d="M0 0 C-49.72 83.89, -248.61 419.44, -298.33 503.33 M0 0 C-49.72 83.89, -248.61 419.44, -298.33 503.33" stroke="#000000" stroke-width="4" fill="none"></path></g><g transform="translate(1493.3333333333348 943.333333333333) rotate(0 -149.16666666666652 251.66666666666669)"><path d="M-298.33 503.33 L-296.86 488.41 L-285.95 494.87 L-298.33 503.33" stroke="none" stroke-width="0" fill="#000000" fill-rule="evenodd"></path><path d="M-298.33 503.33 C-297.92 499.14, -297.5 494.94, -296.86 488.41 M-298.33 503.33 C-297.85 498.47, -297.37 493.61, -296.86 488.41 M-296.86 488.41 C-293.44 490.43, -290.02 492.46, -285.95 494.87 M-296.86 488.41 C-294.4 489.86, -291.94 491.32, -285.95 494.87 M-285.95 494.87 C-288.83 496.84, -291.71 498.8, -298.33 503.33 M-285.95 494.87 C-290.07 497.69, -294.19 500.51, -298.33 503.33 M-298.33 503.33 C-298.33 503.33, -298.33 503.33, -298.33 503.33 M-298.33 503.33 C-298.33 503.33, -298.33 503.33, -298.33 503.33" stroke="#000000" stroke-width="4" fill="none"></path></g></g><mask id="mask-lt-JXwREOQyaWZ1T-nosI"><rect x="0" y="0" fill="#fff" width="1891.6666666666679" height="1546.6666666666665"></rect><rect x="1248.102213541667" y="1151.7999999999997" fill="#000" width="192.12890625" height="86.39999999999999" opacity="1"></rect></mask><g transform="translate(1248.1022135416679 1151.7999999999997) rotate(0 96.06445312500045 43.2000000000001)"><text x="96.064453125" y="0" font-family="Helvetica, Segoe UI Emoji" font-size="36px" fill="#000000" text-anchor="middle" style="white-space: pre;" direction="ltr" dominant-baseline="text-before-edge">Subdomain </text><text x="96.064453125" y="43.199999999999996" font-family="Helvetica, Segoe UI Emoji" font-size="36px" fill="#000000" text-anchor="middle" style="white-space: pre;" direction="ltr" dominant-baseline="text-before-edge">Chunk</text></g><g mask="url(#mask-PF16RAsVxHf3UNv4T8jus)" stroke-linecap="round"><g transform="translate(1851.5316616994132 936.6666666666663) rotate(0 89.93607459334817 259.1666666666667)"><path d="M0 0 C29.98 86.39, 149.89 431.94, 179.87 518.33 M0 0 C29.98 86.39, 149.89 431.94, 179.87 518.33" stroke="#000000" stroke-width="4" fill="none"></path></g><g transform="translate(1851.5316616994132 936.6666666666663) rotate(0 89.93607459334817 259.1666666666667)"><path d="M179.87 518.33 L169.43 507.57 L181.4 503.41 L179.87 518.33" stroke="none" stroke-width="0" fill="#000000" fill-rule="evenodd"></path><path d="M179.87 518.33 C176.36 514.71, 172.84 511.09, 169.43 507.57 M179.87 518.33 C176.54 514.9, 173.21 511.47, 169.43 507.57 M169.43 507.57 C174 505.98, 178.57 504.39, 181.4 503.41 M169.43 507.57 C173 506.33, 176.58 505.09, 181.4 503.41 M181.4 503.41 C181.01 507.27, 180.61 511.14, 179.87 518.33 M181.4 503.41 C180.89 508.45, 180.37 513.5, 179.87 518.33 M179.87 518.33 C179.87 518.33, 179.87 518.33, 179.87 518.33 M179.87 518.33 C179.87 518.33, 179.87 518.33, 179.87 518.33" stroke="#000000" stroke-width="4" fill="none"></path></g></g><mask id="mask-PF16RAsVxHf3UNv4T8jus"><rect x="0" y="0" fill="#fff" width="2131.4038108861096" height="1554.9999999999995"></rect><rect x="1845.4032831677614" y="1152.6333333333328" fill="#000" width="192.12890625" height="86.39999999999999" opacity="1"></rect></mask><g transform="translate(1845.4032831677614 1152.633333333333) rotate(0 96.064453125 43.2000000000001)"><text x="96.064453125" y="0" font-family="Helvetica, Segoe UI Emoji" font-size="36px" fill="#000000" text-anchor="middle" style="white-space: pre;" direction="ltr" dominant-baseline="text-before-edge">Subdomain </text><text x="96.064453125" y="43.199999999999996" font-family="Helvetica, Segoe UI Emoji" font-size="36px" fill="#000000" text-anchor="middle" style="white-space: pre;" direction="ltr" dominant-baseline="text-before-edge">Chunk</text></g><g stroke-linecap="round" transform="translate(1380.6666666666679 1544.6666666666665) rotate(0 18 17)"><path d="M36 17 C36 17.98, 35.91 18.98, 35.73 19.95 C35.55 20.92, 35.27 21.89, 34.91 22.81 C34.56 23.74, 34.11 24.65, 33.59 25.5 C33.07 26.35, 32.46 27.17, 31.79 27.93 C31.12 28.68, 30.37 29.39, 29.57 30.02 C28.77 30.66, 27.9 31.23, 27 31.72 C26.1 32.21, 25.14 32.64, 24.16 32.97 C23.18 33.31, 22.15 33.57, 21.13 33.74 C20.1 33.91, 19.04 34, 18 34 C16.96 34, 15.9 33.91, 14.87 33.74 C13.85 33.57, 12.82 33.31, 11.84 32.97 C10.86 32.64, 9.9 32.21, 9 31.72 C8.1 31.23, 7.23 30.66, 6.43 30.02 C5.63 29.39, 4.88 28.68, 4.21 27.93 C3.54 27.17, 2.93 26.35, 2.41 25.5 C1.89 24.65, 1.44 23.74, 1.09 22.81 C0.73 21.89, 0.45 20.92, 0.27 19.95 C0.09 18.98, 0 17.98, 0 17 C0 16.02, 0.09 15.02, 0.27 14.05 C0.45 13.08, 0.73 12.11, 1.09 11.19 C1.44 10.26, 1.89 9.35, 2.41 8.5 C2.93 7.65, 3.54 6.83, 4.21 6.07 C4.88 5.32, 5.63 4.61, 6.43 3.98 C7.23 3.34, 8.1 2.77, 9 2.28 C9.9 1.79, 10.86 1.36, 11.84 1.03 C12.82 0.69, 13.85 0.43, 14.87 0.26 C15.9 0.09, 16.96 0, 18 0 C19.04 0, 20.1 0.09, 21.13 0.26 C22.15 0.43, 23.18 0.69, 24.16 1.03 C25.14 1.36, 26.1 1.79, 27 2.28 C27.9 2.77, 28.77 3.34, 29.57 3.98 C30.37 4.61, 31.12 5.32, 31.79 6.07 C32.46 6.83, 33.07 7.65, 33.59 8.5 C34.11 9.35, 34.56 10.26, 34.91 11.19 C35.27 12.11, 35.55 13.08, 35.73 14.05 C35.91 15.02, 35.95 16.51, 36 17 C36.05 17.49, 36.05 16.51, 36 17" stroke="none" stroke-width="0" fill="#868e96"></path><path d="M36 17 C36 17.98, 35.91 18.98, 35.73 19.95 C35.55 20.92, 35.27 21.89, 34.91 22.81 C34.56 23.74, 34.11 24.65, 33.59 25.5 C33.07 26.35, 32.46 27.17, 31.79 27.93 C31.12 28.68, 30.37 29.39, 29.57 30.02 C28.77 30.66, 27.9 31.23, 27 31.72 C26.1 32.21, 25.14 32.64, 24.16 32.97 C23.18 33.31, 22.15 33.57, 21.13 33.74 C20.1 33.91, 19.04 34, 18 34 C16.96 34, 15.9 33.91, 14.87 33.74 C13.85 33.57, 12.82 33.31, 11.84 32.97 C10.86 32.64, 9.9 32.21, 9 31.72 C8.1 31.23, 7.23 30.66, 6.43 30.02 C5.63 29.39, 4.88 28.68, 4.21 27.93 C3.54 27.17, 2.93 26.35, 2.41 25.5 C1.89 24.65, 1.44 23.74, 1.09 22.81 C0.73 21.89, 0.45 20.92, 0.27 19.95 C0.09 18.98, 0 17.98, 0 17 C0 16.02, 0.09 15.02, 0.27 14.05 C0.45 13.08, 0.73 12.11, 1.09 11.19 C1.44 10.26, 1.89 9.35, 2.41 8.5 C2.93 7.65, 3.54 6.83, 4.21 6.07 C4.88 5.32, 5.63 4.61, 6.43 3.98 C7.23 3.34, 8.1 2.77, 9 2.28 C9.9 1.79, 10.86 1.36, 11.84 1.03 C12.82 0.69, 13.85 0.43, 14.87 0.26 C15.9 0.09, 16.96 0, 18 0 C19.04 0, 20.1 0.09, 21.13 0.26 C22.15 0.43, 23.18 0.69, 24.16 1.03 C25.14 1.36, 26.1 1.79, 27 2.28 C27.9 2.77, 28.77 3.34, 29.57 3.98 C30.37 4.61, 31.12 5.32, 31.79 6.07 C32.46 6.83, 33.07 7.65, 33.59 8.5 C34.11 9.35, 34.56 10.26, 34.91 11.19 C35.27 12.11, 35.55 13.08, 35.73 14.05 C35.91 15.02, 35.95 16.51, 36 17 C36.05 17.49, 36.05 16.51, 36 17" stroke="#000000" stroke-width="4" fill="none"></path></g><g stroke-linecap="round" transform="translate(1442.6666666666679 1544.6666666666665) rotate(0 18 17)"><path d="M36 17 C36 17.98, 35.91 18.98, 35.73 19.95 C35.55 20.92, 35.27 21.89, 34.91 22.81 C34.56 23.74, 34.11 24.65, 33.59 25.5 C33.07 26.35, 32.46 27.17, 31.79 27.93 C31.12 28.68, 30.37 29.39, 29.57 30.02 C28.77 30.66, 27.9 31.23, 27 31.72 C26.1 32.21, 25.14 32.64, 24.16 32.97 C23.18 33.31, 22.15 33.57, 21.13 33.74 C20.1 33.91, 19.04 34, 18 34 C16.96 34, 15.9 33.91, 14.87 33.74 C13.85 33.57, 12.82 33.31, 11.84 32.97 C10.86 32.64, 9.9 32.21, 9 31.72 C8.1 31.23, 7.23 30.66, 6.43 30.02 C5.63 29.39, 4.88 28.68, 4.21 27.93 C3.54 27.17, 2.93 26.35, 2.41 25.5 C1.89 24.65, 1.44 23.74, 1.09 22.81 C0.73 21.89, 0.45 20.92, 0.27 19.95 C0.09 18.98, 0 17.98, 0 17 C0 16.02, 0.09 15.02, 0.27 14.05 C0.45 13.08, 0.73 12.11, 1.09 11.19 C1.44 10.26, 1.89 9.35, 2.41 8.5 C2.93 7.65, 3.54 6.83, 4.21 6.07 C4.88 5.32, 5.63 4.61, 6.43 3.98 C7.23 3.34, 8.1 2.77, 9 2.28 C9.9 1.79, 10.86 1.36, 11.84 1.03 C12.82 0.69, 13.85 0.43, 14.87 0.26 C15.9 0.09, 16.96 0, 18 0 C19.04 0, 20.1 0.09, 21.13 0.26 C22.15 0.43, 23.18 0.69, 24.16 1.03 C25.14 1.36, 26.1 1.79, 27 2.28 C27.9 2.77, 28.77 3.34, 29.57 3.98 C30.37 4.61, 31.12 5.32, 31.79 6.07 C32.46 6.83, 33.07 7.65, 33.59 8.5 C34.11 9.35, 34.56 10.26, 34.91 11.19 C35.27 12.11, 35.55 13.08, 35.73 14.05 C35.91 15.02, 35.95 16.51, 36 17 C36.05 17.49, 36.05 16.51, 36 17" stroke="none" stroke-width="0" fill="#868e96"></path><path d="M36 17 C36 17.98, 35.91 18.98, 35.73 19.95 C35.55 20.92, 35.27 21.89, 34.91 22.81 C34.56 23.74, 34.11 24.65, 33.59 25.5 C33.07 26.35, 32.46 27.17, 31.79 27.93 C31.12 28.68, 30.37 29.39, 29.57 30.02 C28.77 30.66, 27.9 31.23, 27 31.72 C26.1 32.21, 25.14 32.64, 24.16 32.97 C23.18 33.31, 22.15 33.57, 21.13 33.74 C20.1 33.91, 19.04 34, 18 34 C16.96 34, 15.9 33.91, 14.87 33.74 C13.85 33.57, 12.82 33.31, 11.84 32.97 C10.86 32.64, 9.9 32.21, 9 31.72 C8.1 31.23, 7.23 30.66, 6.43 30.02 C5.63 29.39, 4.88 28.68, 4.21 27.93 C3.54 27.17, 2.93 26.35, 2.41 25.5 C1.89 24.65, 1.44 23.74, 1.09 22.81 C0.73 21.89, 0.45 20.92, 0.27 19.95 C0.09 18.98, 0 17.98, 0 17 C0 16.02, 0.09 15.02, 0.27 14.05 C0.45 13.08, 0.73 12.11, 1.09 11.19 C1.44 10.26, 1.89 9.35, 2.41 8.5 C2.93 7.65, 3.54 6.83, 4.21 6.07 C4.88 5.32, 5.63 4.61, 6.43 3.98 C7.23 3.34, 8.1 2.77, 9 2.28 C9.9 1.79, 10.86 1.36, 11.84 1.03 C12.82 0.69, 13.85 0.43, 14.87 0.26 C15.9 0.09, 16.96 0, 18 0 C19.04 0, 20.1 0.09, 21.13 0.26 C22.15 0.43, 23.18 0.69, 24.16 1.03 C25.14 1.36, 26.1 1.79, 27 2.28 C27.9 2.77, 28.77 3.34, 29.57 3.98 C30.37 4.61, 31.12 5.32, 31.79 6.07 C32.46 6.83, 33.07 7.65, 33.59 8.5 C34.11 9.35, 34.56 10.26, 34.91 11.19 C35.27 12.11, 35.55 13.08, 35.73 14.05 C35.91 15.02, 35.95 16.51, 36 17 C36.05 17.49, 36.05 16.51, 36 17" stroke="#000000" stroke-width="4" fill="none"></path></g><g stroke-linecap="round" transform="translate(1504.6666666666679 1544.6666666666665) rotate(0 18 17)"><path d="M36 17 C36 17.98, 35.91 18.98, 35.73 19.95 C35.55 20.92, 35.27 21.89, 34.91 22.81 C34.56 23.74, 34.11 24.65, 33.59 25.5 C33.07 26.35, 32.46 27.17, 31.79 27.93 C31.12 28.68, 30.37 29.39, 29.57 30.02 C28.77 30.66, 27.9 31.23, 27 31.72 C26.1 32.21, 25.14 32.64, 24.16 32.97 C23.18 33.31, 22.15 33.57, 21.13 33.74 C20.1 33.91, 19.04 34, 18 34 C16.96 34, 15.9 33.91, 14.87 33.74 C13.85 33.57, 12.82 33.31, 11.84 32.97 C10.86 32.64, 9.9 32.21, 9 31.72 C8.1 31.23, 7.23 30.66, 6.43 30.02 C5.63 29.39, 4.88 28.68, 4.21 27.93 C3.54 27.17, 2.93 26.35, 2.41 25.5 C1.89 24.65, 1.44 23.74, 1.09 22.81 C0.73 21.89, 0.45 20.92, 0.27 19.95 C0.09 18.98, 0 17.98, 0 17 C0 16.02, 0.09 15.02, 0.27 14.05 C0.45 13.08, 0.73 12.11, 1.09 11.19 C1.44 10.26, 1.89 9.35, 2.41 8.5 C2.93 7.65, 3.54 6.83, 4.21 6.07 C4.88 5.32, 5.63 4.61, 6.43 3.98 C7.23 3.34, 8.1 2.77, 9 2.28 C9.9 1.79, 10.86 1.36, 11.84 1.03 C12.82 0.69, 13.85 0.43, 14.87 0.26 C15.9 0.09, 16.96 0, 18 0 C19.04 0, 20.1 0.09, 21.13 0.26 C22.15 0.43, 23.18 0.69, 24.16 1.03 C25.14 1.36, 26.1 1.79, 27 2.28 C27.9 2.77, 28.77 3.34, 29.57 3.98 C30.37 4.61, 31.12 5.32, 31.79 6.07 C32.46 6.83, 33.07 7.65, 33.59 8.5 C34.11 9.35, 34.56 10.26, 34.91 11.19 C35.27 12.11, 35.55 13.08, 35.73 14.05 C35.91 15.02, 35.95 16.51, 36 17 C36.05 17.49, 36.05 16.51, 36 17" stroke="none" stroke-width="0" fill="#868e96"></path><path d="M36 17 C36 17.98, 35.91 18.98, 35.73 19.95 C35.55 20.92, 35.27 21.89, 34.91 22.81 C34.56 23.74, 34.11 24.65, 33.59 25.5 C33.07 26.35, 32.46 27.17, 31.79 27.93 C31.12 28.68, 30.37 29.39, 29.57 30.02 C28.77 30.66, 27.9 31.23, 27 31.72 C26.1 32.21, 25.14 32.64, 24.16 32.97 C23.18 33.31, 22.15 33.57, 21.13 33.74 C20.1 33.91, 19.04 34, 18 34 C16.96 34, 15.9 33.91, 14.87 33.74 C13.85 33.57, 12.82 33.31, 11.84 32.97 C10.86 32.64, 9.9 32.21, 9 31.72 C8.1 31.23, 7.23 30.66, 6.43 30.02 C5.63 29.39, 4.88 28.68, 4.21 27.93 C3.54 27.17, 2.93 26.35, 2.41 25.5 C1.89 24.65, 1.44 23.74, 1.09 22.81 C0.73 21.89, 0.45 20.92, 0.27 19.95 C0.09 18.98, 0 17.98, 0 17 C0 16.02, 0.09 15.02, 0.27 14.05 C0.45 13.08, 0.73 12.11, 1.09 11.19 C1.44 10.26, 1.89 9.35, 2.41 8.5 C2.93 7.65, 3.54 6.83, 4.21 6.07 C4.88 5.32, 5.63 4.61, 6.43 3.98 C7.23 3.34, 8.1 2.77, 9 2.28 C9.9 1.79, 10.86 1.36, 11.84 1.03 C12.82 0.69, 13.85 0.43, 14.87 0.26 C15.9 0.09, 16.96 0, 18 0 C19.04 0, 20.1 0.09, 21.13 0.26 C22.15 0.43, 23.18 0.69, 24.16 1.03 C25.14 1.36, 26.1 1.79, 27 2.28 C27.9 2.77, 28.77 3.34, 29.57 3.98 C30.37 4.61, 31.12 5.32, 31.79 6.07 C32.46 6.83, 33.07 7.65, 33.59 8.5 C34.11 9.35, 34.56 10.26, 34.91 11.19 C35.27 12.11, 35.55 13.08, 35.73 14.05 C35.91 15.02, 35.95 16.51, 36 17 C36.05 17.49, 36.05 16.51, 36 17" stroke="#000000" stroke-width="4" fill="none"></path></g><g stroke-linecap="round" transform="translate(4147.166666666666 1564.333333333333) rotate(0 18 17)"><path d="M36 17 C36 17.98, 35.91 18.98, 35.73 19.95 C35.55 20.92, 35.27 21.89, 34.91 22.81 C34.56 23.74, 34.11 24.65, 33.59 25.5 C33.07 26.35, 32.46 27.17, 31.79 27.93 C31.12 28.68, 30.37 29.39, 29.57 30.02 C28.77 30.66, 27.9 31.23, 27 31.72 C26.1 32.21, 25.14 32.64, 24.16 32.97 C23.18 33.31, 22.15 33.57, 21.13 33.74 C20.1 33.91, 19.04 34, 18 34 C16.96 34, 15.9 33.91, 14.87 33.74 C13.85 33.57, 12.82 33.31, 11.84 32.97 C10.86 32.64, 9.9 32.21, 9 31.72 C8.1 31.23, 7.23 30.66, 6.43 30.02 C5.63 29.39, 4.88 28.68, 4.21 27.93 C3.54 27.17, 2.93 26.35, 2.41 25.5 C1.89 24.65, 1.44 23.74, 1.09 22.81 C0.73 21.89, 0.45 20.92, 0.27 19.95 C0.09 18.98, 0 17.98, 0 17 C0 16.02, 0.09 15.02, 0.27 14.05 C0.45 13.08, 0.73 12.11, 1.09 11.19 C1.44 10.26, 1.89 9.35, 2.41 8.5 C2.93 7.65, 3.54 6.83, 4.21 6.07 C4.88 5.32, 5.63 4.61, 6.43 3.98 C7.23 3.34, 8.1 2.77, 9 2.28 C9.9 1.79, 10.86 1.36, 11.84 1.03 C12.82 0.69, 13.85 0.43, 14.87 0.26 C15.9 0.09, 16.96 0, 18 0 C19.04 0, 20.1 0.09, 21.13 0.26 C22.15 0.43, 23.18 0.69, 24.16 1.03 C25.14 1.36, 26.1 1.79, 27 2.28 C27.9 2.77, 28.77 3.34, 29.57 3.98 C30.37 4.61, 31.12 5.32, 31.79 6.07 C32.46 6.83, 33.07 7.65, 33.59 8.5 C34.11 9.35, 34.56 10.26, 34.91 11.19 C35.27 12.11, 35.55 13.08, 35.73 14.05 C35.91 15.02, 35.95 16.51, 36 17 C36.05 17.49, 36.05 16.51, 36 17" stroke="none" stroke-width="0" fill="#868e96"></path><path d="M36 17 C36 17.98, 35.91 18.98, 35.73 19.95 C35.55 20.92, 35.27 21.89, 34.91 22.81 C34.56 23.74, 34.11 24.65, 33.59 25.5 C33.07 26.35, 32.46 27.17, 31.79 27.93 C31.12 28.68, 30.37 29.39, 29.57 30.02 C28.77 30.66, 27.9 31.23, 27 31.72 C26.1 32.21, 25.14 32.64, 24.16 32.97 C23.18 33.31, 22.15 33.57, 21.13 33.74 C20.1 33.91, 19.04 34, 18 34 C16.96 34, 15.9 33.91, 14.87 33.74 C13.85 33.57, 12.82 33.31, 11.84 32.97 C10.86 32.64, 9.9 32.21, 9 31.72 C8.1 31.23, 7.23 30.66, 6.43 30.02 C5.63 29.39, 4.88 28.68, 4.21 27.93 C3.54 27.17, 2.93 26.35, 2.41 25.5 C1.89 24.65, 1.44 23.74, 1.09 22.81 C0.73 21.89, 0.45 20.92, 0.27 19.95 C0.09 18.98, 0 17.98, 0 17 C0 16.02, 0.09 15.02, 0.27 14.05 C0.45 13.08, 0.73 12.11, 1.09 11.19 C1.44 10.26, 1.89 9.35, 2.41 8.5 C2.93 7.65, 3.54 6.83, 4.21 6.07 C4.88 5.32, 5.63 4.61, 6.43 3.98 C7.23 3.34, 8.1 2.77, 9 2.28 C9.9 1.79, 10.86 1.36, 11.84 1.03 C12.82 0.69, 13.85 0.43, 14.87 0.26 C15.9 0.09, 16.96 0, 18 0 C19.04 0, 20.1 0.09, 21.13 0.26 C22.15 0.43, 23.18 0.69, 24.16 1.03 C25.14 1.36, 26.1 1.79, 27 2.28 C27.9 2.77, 28.77 3.34, 29.57 3.98 C30.37 4.61, 31.12 5.32, 31.79 6.07 C32.46 6.83, 33.07 7.65, 33.59 8.5 C34.11 9.35, 34.56 10.26, 34.91 11.19 C35.27 12.11, 35.55 13.08, 35.73 14.05 C35.91 15.02, 35.95 16.51, 36 17 C36.05 17.49, 36.05 16.51, 36 17" stroke="#000000" stroke-width="4" fill="none"></path></g><g stroke-linecap="round" transform="translate(4209.166666666666 1564.333333333333) rotate(0 18 17)"><path d="M36 17 C36 17.98, 35.91 18.98, 35.73 19.95 C35.55 20.92, 35.27 21.89, 34.91 22.81 C34.56 23.74, 34.11 24.65, 33.59 25.5 C33.07 26.35, 32.46 27.17, 31.79 27.93 C31.12 28.68, 30.37 29.39, 29.57 30.02 C28.77 30.66, 27.9 31.23, 27 31.72 C26.1 32.21, 25.14 32.64, 24.16 32.97 C23.18 33.31, 22.15 33.57, 21.13 33.74 C20.1 33.91, 19.04 34, 18 34 C16.96 34, 15.9 33.91, 14.87 33.74 C13.85 33.57, 12.82 33.31, 11.84 32.97 C10.86 32.64, 9.9 32.21, 9 31.72 C8.1 31.23, 7.23 30.66, 6.43 30.02 C5.63 29.39, 4.88 28.68, 4.21 27.93 C3.54 27.17, 2.93 26.35, 2.41 25.5 C1.89 24.65, 1.44 23.74, 1.09 22.81 C0.73 21.89, 0.45 20.92, 0.27 19.95 C0.09 18.98, 0 17.98, 0 17 C0 16.02, 0.09 15.02, 0.27 14.05 C0.45 13.08, 0.73 12.11, 1.09 11.19 C1.44 10.26, 1.89 9.35, 2.41 8.5 C2.93 7.65, 3.54 6.83, 4.21 6.07 C4.88 5.32, 5.63 4.61, 6.43 3.98 C7.23 3.34, 8.1 2.77, 9 2.28 C9.9 1.79, 10.86 1.36, 11.84 1.03 C12.82 0.69, 13.85 0.43, 14.87 0.26 C15.9 0.09, 16.96 0, 18 0 C19.04 0, 20.1 0.09, 21.13 0.26 C22.15 0.43, 23.18 0.69, 24.16 1.03 C25.14 1.36, 26.1 1.79, 27 2.28 C27.9 2.77, 28.77 3.34, 29.57 3.98 C30.37 4.61, 31.12 5.32, 31.79 6.07 C32.46 6.83, 33.07 7.65, 33.59 8.5 C34.11 9.35, 34.56 10.26, 34.91 11.19 C35.27 12.11, 35.55 13.08, 35.73 14.05 C35.91 15.02, 35.95 16.51, 36 17 C36.05 17.49, 36.05 16.51, 36 17" stroke="none" stroke-width="0" fill="#868e96"></path><path d="M36 17 C36 17.98, 35.91 18.98, 35.73 19.95 C35.55 20.92, 35.27 21.89, 34.91 22.81 C34.56 23.74, 34.11 24.65, 33.59 25.5 C33.07 26.35, 32.46 27.17, 31.79 27.93 C31.12 28.68, 30.37 29.39, 29.57 30.02 C28.77 30.66, 27.9 31.23, 27 31.72 C26.1 32.21, 25.14 32.64, 24.16 32.97 C23.18 33.31, 22.15 33.57, 21.13 33.74 C20.1 33.91, 19.04 34, 18 34 C16.96 34, 15.9 33.91, 14.87 33.74 C13.85 33.57, 12.82 33.31, 11.84 32.97 C10.86 32.64, 9.9 32.21, 9 31.72 C8.1 31.23, 7.23 30.66, 6.43 30.02 C5.63 29.39, 4.88 28.68, 4.21 27.93 C3.54 27.17, 2.93 26.35, 2.41 25.5 C1.89 24.65, 1.44 23.74, 1.09 22.81 C0.73 21.89, 0.45 20.92, 0.27 19.95 C0.09 18.98, 0 17.98, 0 17 C0 16.02, 0.09 15.02, 0.27 14.05 C0.45 13.08, 0.73 12.11, 1.09 11.19 C1.44 10.26, 1.89 9.35, 2.41 8.5 C2.93 7.65, 3.54 6.83, 4.21 6.07 C4.88 5.32, 5.63 4.61, 6.43 3.98 C7.23 3.34, 8.1 2.77, 9 2.28 C9.9 1.79, 10.86 1.36, 11.84 1.03 C12.82 0.69, 13.85 0.43, 14.87 0.26 C15.9 0.09, 16.96 0, 18 0 C19.04 0, 20.1 0.09, 21.13 0.26 C22.15 0.43, 23.18 0.69, 24.16 1.03 C25.14 1.36, 26.1 1.79, 27 2.28 C27.9 2.77, 28.77 3.34, 29.57 3.98 C30.37 4.61, 31.12 5.32, 31.79 6.07 C32.46 6.83, 33.07 7.65, 33.59 8.5 C34.11 9.35, 34.56 10.26, 34.91 11.19 C35.27 12.11, 35.55 13.08, 35.73 14.05 C35.91 15.02, 35.95 16.51, 36 17 C36.05 17.49, 36.05 16.51, 36 17" stroke="#000000" stroke-width="4" fill="none"></path></g><g stroke-linecap="round" transform="translate(4271.166666666666 1564.333333333333) rotate(0 18 17)"><path d="M36 17 C36 17.98, 35.91 18.98, 35.73 19.95 C35.55 20.92, 35.27 21.89, 34.91 22.81 C34.56 23.74, 34.11 24.65, 33.59 25.5 C33.07 26.35, 32.46 27.17, 31.79 27.93 C31.12 28.68, 30.37 29.39, 29.57 30.02 C28.77 30.66, 27.9 31.23, 27 31.72 C26.1 32.21, 25.14 32.64, 24.16 32.97 C23.18 33.31, 22.15 33.57, 21.13 33.74 C20.1 33.91, 19.04 34, 18 34 C16.96 34, 15.9 33.91, 14.87 33.74 C13.85 33.57, 12.82 33.31, 11.84 32.97 C10.86 32.64, 9.9 32.21, 9 31.72 C8.1 31.23, 7.23 30.66, 6.43 30.02 C5.63 29.39, 4.88 28.68, 4.21 27.93 C3.54 27.17, 2.93 26.35, 2.41 25.5 C1.89 24.65, 1.44 23.74, 1.09 22.81 C0.73 21.89, 0.45 20.92, 0.27 19.95 C0.09 18.98, 0 17.98, 0 17 C0 16.02, 0.09 15.02, 0.27 14.05 C0.45 13.08, 0.73 12.11, 1.09 11.19 C1.44 10.26, 1.89 9.35, 2.41 8.5 C2.93 7.65, 3.54 6.83, 4.21 6.07 C4.88 5.32, 5.63 4.61, 6.43 3.98 C7.23 3.34, 8.1 2.77, 9 2.28 C9.9 1.79, 10.86 1.36, 11.84 1.03 C12.82 0.69, 13.85 0.43, 14.87 0.26 C15.9 0.09, 16.96 0, 18 0 C19.04 0, 20.1 0.09, 21.13 0.26 C22.15 0.43, 23.18 0.69, 24.16 1.03 C25.14 1.36, 26.1 1.79, 27 2.28 C27.9 2.77, 28.77 3.34, 29.57 3.98 C30.37 4.61, 31.12 5.32, 31.79 6.07 C32.46 6.83, 33.07 7.65, 33.59 8.5 C34.11 9.35, 34.56 10.26, 34.91 11.19 C35.27 12.11, 35.55 13.08, 35.73 14.05 C35.91 15.02, 35.95 16.51, 36 17 C36.05 17.49, 36.05 16.51, 36 17" stroke="none" stroke-width="0" fill="#868e96"></path><path d="M36 17 C36 17.98, 35.91 18.98, 35.73 19.95 C35.55 20.92, 35.27 21.89, 34.91 22.81 C34.56 23.74, 34.11 24.65, 33.59 25.5 C33.07 26.35, 32.46 27.17, 31.79 27.93 C31.12 28.68, 30.37 29.39, 29.57 30.02 C28.77 30.66, 27.9 31.23, 27 31.72 C26.1 32.21, 25.14 32.64, 24.16 32.97 C23.18 33.31, 22.15 33.57, 21.13 33.74 C20.1 33.91, 19.04 34, 18 34 C16.96 34, 15.9 33.91, 14.87 33.74 C13.85 33.57, 12.82 33.31, 11.84 32.97 C10.86 32.64, 9.9 32.21, 9 31.72 C8.1 31.23, 7.23 30.66, 6.43 30.02 C5.63 29.39, 4.88 28.68, 4.21 27.93 C3.54 27.17, 2.93 26.35, 2.41 25.5 C1.89 24.65, 1.44 23.74, 1.09 22.81 C0.73 21.89, 0.45 20.92, 0.27 19.95 C0.09 18.98, 0 17.98, 0 17 C0 16.02, 0.09 15.02, 0.27 14.05 C0.45 13.08, 0.73 12.11, 1.09 11.19 C1.44 10.26, 1.89 9.35, 2.41 8.5 C2.93 7.65, 3.54 6.83, 4.21 6.07 C4.88 5.32, 5.63 4.61, 6.43 3.98 C7.23 3.34, 8.1 2.77, 9 2.28 C9.9 1.79, 10.86 1.36, 11.84 1.03 C12.82 0.69, 13.85 0.43, 14.87 0.26 C15.9 0.09, 16.96 0, 18 0 C19.04 0, 20.1 0.09, 21.13 0.26 C22.15 0.43, 23.18 0.69, 24.16 1.03 C25.14 1.36, 26.1 1.79, 27 2.28 C27.9 2.77, 28.77 3.34, 29.57 3.98 C30.37 4.61, 31.12 5.32, 31.79 6.07 C32.46 6.83, 33.07 7.65, 33.59 8.5 C34.11 9.35, 34.56 10.26, 34.91 11.19 C35.27 12.11, 35.55 13.08, 35.73 14.05 C35.91 15.02, 35.95 16.51, 36 17 C36.05 17.49, 36.05 16.51, 36 17" stroke="#000000" stroke-width="4" fill="none"></path></g><g mask="url(#mask-tJZgkw1lQYJV1Keyt4oyu)" stroke-linecap="round"><g transform="translate(2819.500000000002 945.1666666666662) rotate(0 59 255)"><path d="M0 0 C19.67 85, 98.33 425, 118 510 M0 0 C19.67 85, 98.33 425, 118 510" stroke="#000000" stroke-width="4" fill="none"></path></g><g transform="translate(2819.500000000002 945.1666666666662) rotate(0 59 255)"><path d="M118 510 L108.76 498.18 L121.11 495.33 L118 510" stroke="none" stroke-width="0" fill="#000000" fill-rule="evenodd"></path><path d="M118 510 C114.86 505.99, 111.72 501.97, 108.76 498.18 M118 510 C115.55 506.87, 113.1 503.73, 108.76 498.18 M108.76 498.18 C112.98 497.21, 117.2 496.23, 121.11 495.33 M108.76 498.18 C111.59 497.53, 114.42 496.87, 121.11 495.33 M121.11 495.33 C120.38 498.79, 119.64 502.25, 118 510 M121.11 495.33 C119.97 500.71, 118.83 506.09, 118 510 M118 510 C118 510, 118 510, 118 510 M118 510 C118 510, 118 510, 118 510" stroke="#000000" stroke-width="4" fill="none"></path></g></g><mask id="mask-tJZgkw1lQYJV1Keyt4oyu"><rect x="0" y="0" fill="#fff" width="3037.500000000002" height="1555.166666666666"></rect><rect x="2792.481445312502" y="1156.966666666666" fill="#000" width="172.037109375" height="86.39999999999999" opacity="1"></rect></mask><g transform="translate(2792.481445312502 1156.9666666666662) rotate(0 86.0185546875 43.200000000000045)"><text x="86.0185546875" y="0" font-family="Helvetica, Segoe UI Emoji" font-size="36px" fill="#000000" text-anchor="middle" style="white-space: pre;" direction="ltr" dominant-baseline="text-before-edge">Directories</text><text x="86.0185546875" y="43.199999999999996" font-family="Helvetica, Segoe UI Emoji" font-size="36px" fill="#000000" text-anchor="middle" style="white-space: pre;" direction="ltr" dominant-baseline="text-before-edge">Chunk</text></g><g mask="url(#mask-W0Rp9zzf3Af6Aq1D4TNah)" stroke-linecap="round"><g transform="translate(3099.500000000002 949.1666666666662) rotate(0 244 260)"><path d="M0 0 C81.33 86.67, 406.67 433.33, 488 520 M0 0 C81.33 86.67, 406.67 433.33, 488 520" stroke="#000000" stroke-width="4" fill="none"></path></g><g transform="translate(3099.500000000002 949.1666666666662) rotate(0 244 260)"><path d="M488 520 L474.07 514.43 L483.32 505.75 L488 520" stroke="none" stroke-width="0" fill="#000000" fill-rule="evenodd"></path><path d="M488 520 C483.92 518.37, 479.84 516.73, 474.07 514.43 M488 520 C485.1 518.84, 482.21 517.68, 474.07 514.43 M474.07 514.43 C476.16 512.47, 478.25 510.51, 483.32 505.75 M474.07 514.43 C477.7 511.02, 481.33 507.62, 483.32 505.75 M483.32 505.75 C484.81 510.29, 486.3 514.83, 488 520 M483.32 505.75 C484.55 509.49, 485.78 513.23, 488 520 M488 520 C488 520, 488 520, 488 520 M488 520 C488 520, 488 520, 488 520" stroke="#000000" stroke-width="4" fill="none"></path></g></g><mask id="mask-W0Rp9zzf3Af6Aq1D4TNah"><rect x="0" y="0" fill="#fff" width="3687.500000000002" height="1569.166666666666"></rect><rect x="3257.481445312502" y="1165.966666666666" fill="#000" width="172.037109375" height="86.39999999999999" opacity="1"></rect></mask><g transform="translate(3257.481445312502 1165.9666666666662) rotate(0 86.0185546875 43.200000000000045)"><text x="86.0185546875" y="0" font-family="Helvetica, Segoe UI Emoji" font-size="36px" fill="#000000" text-anchor="middle" style="white-space: pre;" direction="ltr" dominant-baseline="text-before-edge">Directories</text><text x="86.0185546875" y="43.199999999999996" font-family="Helvetica, Segoe UI Emoji" font-size="36px" fill="#000000" text-anchor="middle" style="white-space: pre;" direction="ltr" dominant-baseline="text-before-edge">Chunk</text></g><g mask="url(#mask-6ULr_O7UxDwZa05925J_S)" stroke-linecap="round"><g transform="translate(3310.1666666666697 943.1666666666662) rotate(0 690 253.75)"><path d="M0 0 C230 84.58, 1150 422.92, 1380 507.5 M0 0 C230 84.58, 1150 422.92, 1380 507.5" stroke="#000000" stroke-width="4" fill="none"></path></g><g transform="translate(3310.1666666666697 943.1666666666662) rotate(0 690 253.75)"><path d="M1380 507.5 L1365.05 508.76 L1369.43 496.86 L1380 507.5" stroke="none" stroke-width="0" fill="#000000" fill-rule="evenodd"></path><path d="M1380 507.5 C1376.25 507.82, 1372.51 508.13, 1365.05 508.76 M1380 507.5 C1375.11 507.91, 1370.22 508.32, 1365.05 508.76 M1365.05 508.76 C1366.53 504.75, 1368 500.74, 1369.43 496.86 M1365.05 508.76 C1366.78 504.07, 1368.5 499.38, 1369.43 496.86 M1369.43 496.86 C1372.37 499.82, 1375.31 502.77, 1380 507.5 M1369.43 496.86 C1371.59 499.03, 1373.75 501.21, 1380 507.5 M1380 507.5 C1380 507.5, 1380 507.5, 1380 507.5 M1380 507.5 C1380 507.5, 1380 507.5, 1380 507.5" stroke="#000000" stroke-width="4" fill="none"></path></g></g><mask id="mask-6ULr_O7UxDwZa05925J_S"><rect x="0" y="0" fill="#fff" width="4790.16666666667" height="1550.666666666666"></rect><rect x="3914.1481119791697" y="1153.716666666666" fill="#000" width="172.037109375" height="86.39999999999999" opacity="1"></rect></mask><g transform="translate(3914.1481119791697 1153.7166666666662) rotate(0 86.0185546875 43.200000000000045)"><text x="86.0185546875" y="0" font-family="Helvetica, Segoe UI Emoji" font-size="36px" fill="#000000" text-anchor="middle" style="white-space: pre;" direction="ltr" dominant-baseline="text-before-edge">Directories</text><text x="86.0185546875" y="43.199999999999996" font-family="Helvetica, Segoe UI Emoji" font-size="36px" fill="#000000" text-anchor="middle" style="white-space: pre;" direction="ltr" dominant-baseline="text-before-edge">Chunk</text></g></svg>